<?xml version="1.0" encoding="UTF-8"?>
<svg id="Layer_1" data-name="Layer 1" xmlns="http://www.w3.org/2000/svg" viewBox="0 0 412 439">
  <defs>
    <style>
      .cls-1 {
        fill: blue;
      }
    </style>
  </defs>
  <g>
    <path class="cls-1" d="m104.89,359.62l18.95-33.82h4.23l-23.18,41.3-23.23-41.3h4.23l19,33.82Z"/>
    <path class="cls-1" d="m148.77,329.26h-3.46v34.38h3.46v3.46h-10.38v-3.46h3.46v-34.38h-3.46v-3.46h10.38v3.46Z"/>
    <path class="cls-1" d="m170.3,325.81h30.1v3.46h-30.1c-2.13,0-3.96.76-5.47,2.27-1.52,1.51-2.27,3.34-2.27,5.47s.76,3.95,2.27,5.45c1.51,1.5,3.34,2.25,5.47,2.25h18.9c3.1,0,5.74,1.09,7.92,3.28,2.19,2.19,3.28,4.83,3.28,7.92s-1.09,5.74-3.28,7.92-4.83,3.28-7.92,3.28h-30.1v-3.46h30.1c2.13,0,3.96-.76,5.47-2.27,1.51-1.51,2.27-3.34,2.27-5.47s-.76-3.95-2.27-5.45c-1.51-1.5-3.34-2.25-5.47-2.25h-18.9c-3.1,0-5.74-1.09-7.92-3.28-2.19-2.19-3.28-4.83-3.28-7.92s1.09-5.74,3.28-7.92,4.83-3.28,7.92-3.28Z"/>
    <path class="cls-1" d="m216.76,331.85c4.03-4.03,8.9-6.04,14.61-6.04s10.58,2.01,14.61,6.04c4.03,4.03,6.04,8.9,6.04,14.61s-2.01,10.58-6.04,14.61c-4.03,4.03-8.9,6.04-14.61,6.04s-10.58-2.01-14.61-6.04c-4.03-4.03-6.04-8.9-6.04-14.61s2.01-10.58,6.04-14.61Zm5.99,29.5c2.65,1.53,5.52,2.3,8.62,2.3s5.97-.77,8.62-2.3c2.65-1.53,4.74-3.62,6.27-6.27,1.53-2.65,2.3-5.52,2.3-8.62s-.77-5.97-2.3-8.62c-1.53-2.65-3.62-4.74-6.27-6.27-2.65-1.53-5.52-2.3-8.62-2.3s-5.97.77-8.62,2.3c-2.65,1.53-4.74,3.62-6.27,6.27-1.53,2.65-2.3,5.52-2.3,8.62s.77,5.97,2.3,8.62c1.53,2.65,3.62,4.74,6.27,6.27Z"/>
    <path class="cls-1" d="m303.65,337.01c0,1.96-.47,3.78-1.42,5.45-.95,1.67-2.21,3-3.79,4,1.58,1,2.85,2.33,3.79,4,.95,1.67,1.42,3.48,1.42,5.45v11.2h-3.46v-11.2c0-2.13-.76-3.95-2.27-5.45-1.52-1.5-3.34-2.25-5.47-2.25h-26.64v18.9h-3.46v-41.3h30.1c3.1,0,5.74,1.09,7.92,3.28,2.19,2.19,3.28,4.83,3.28,7.92Zm-37.84-7.74v15.44h26.64c2.13,0,3.96-.75,5.47-2.25,1.51-1.5,2.27-3.31,2.27-5.45s-.76-3.96-2.27-5.47c-1.52-1.51-3.34-2.27-5.47-2.27h-26.64Z"/>
  </g>
  <g>
    <g>
      <path d="m110.57,305.47c1.5-1.5,2.25-3.3,2.25-5.41s-.75-3.9-2.25-5.38c-1.5-1.48-3.3-2.22-5.41-2.22h-18.68c-3.03,0-5.62-1.06-7.77-3.18v18.44h26.45c2.11,0,3.91-.75,5.41-2.25Z"/>
      <path d="m278.81,303.3c3.21,2.94,7.02,4.41,11.41,4.41h18.58v-15.26h-35.47c.44,4.29,2.27,7.9,5.49,10.84Z"/>
      <path d="m290.21,273.73c-4.39,0-8.19,1.47-11.41,4.41-3.22,2.94-5.04,6.56-5.49,10.85h35.47v-15.26h-18.58Z"/>
    </g>
    <path d="m275.77,305.16c-3.98-3.98-5.97-8.79-5.97-14.44s1.99-10.46,5.97-14.44,8.8-5.97,14.44-5.97h18.58v-6.92H78.71v10.1c2.15-2.12,4.74-3.18,7.77-3.18h29.75v3.42h-29.75c-2.11,0-3.91.75-5.41,2.25-1.5,1.5-2.25,3.3-2.25,5.41s.75,3.9,2.25,5.38c1.5,1.48,3.3,2.22,5.41,2.22h18.68c3.06,0,5.67,1.08,7.83,3.24,2.16,2.16,3.24,4.77,3.24,7.83s-1.08,5.67-3.24,7.83c-2.16,2.16-4.77,3.24-7.83,3.24h-26.45v6.64h230.08v-6.64h-18.58c-5.65,0-10.46-1.99-14.44-5.97Zm-127.18,5.97h-3.47v-37.41h-18.68v-3.42h40.83v3.42h-18.68v37.41Zm55.78,0l-18.73-33.43-18.78,33.43h-4.18l22.97-40.83,22.92,40.83h-4.19Zm49.25-5.97c-3.98,3.98-8.8,5.97-14.44,5.97h-20.41v-22.15h3.42v18.73h17c3.06,0,5.9-.76,8.52-2.27,2.62-1.51,4.69-3.58,6.2-6.2,1.51-2.62,2.27-5.46,2.27-8.52s-.76-5.9-2.27-8.52c-1.51-2.62-3.58-4.69-6.2-6.2-2.62-1.51-5.46-2.27-8.52-2.27h-20.41v-3.42h20.41c5.65,0,10.46,1.99,14.44,5.97,3.98,3.98,5.97,8.8,5.97,14.44s-1.99,10.46-5.97,14.44Z"/>
  </g>
  <g>
    <path class="cls-1" d="m204.38,198.16c-3.38-2.28-7.35-3.42-11.92-3.42s-8.81,1.1-12.19,3.29c-3.93,2.65-5.89,6.16-5.89,10.54h35.74c0-4.29-1.92-7.76-5.75-10.41Z"/>
    <path class="cls-1" d="m243.96,179.26l-16.84,2.05c-11.41,1.19-23.05,1.78-34.92,1.78s-23.6-.59-34.92-1.78l-16.71-2.05c-2.46,0-3.7.68-3.7,2.05v65.45c0,1.46.73,2.51,2.19,3.15,2.83,4.02,7.21,6.02,13.14,6.02,10.5,0,16.66-2.83,18.49-8.49h43c-.09,2.47,2.05,4.79,6.44,6.98,3.74,1.83,7.03,2.74,9.86,2.74,5.38,0,10.41-2.37,15.06-7.12,1.64-.55,2.47-1.64,2.47-3.29v-64.08c0-2.28-1.19-3.42-3.56-3.42Zm.14,67.51c-5.02,4.66-9.72,6.98-14.1,6.98s-8.17-1.64-11.64-4.93l-1.23-.41v-32.87c0-1.18-.64-1.78-1.92-1.78-2.56,0-6.32.16-11.29.48-4.98.32-8.74.48-11.3.48s-6.55-.16-11.7-.48c-5.16-.32-9.06-.48-11.71-.48-1.28,0-1.92.59-1.92,1.78v32.87c-5.66,2.74-10.68,4.11-15.06,4.11-4.93,0-8.44-1.64-10.54-4.93l-1.37-.82v-64.08c19.26,2.56,36.56,3.83,51.9,3.83,12.42,0,24.15-.59,35.19-1.78l16.57-2.05.28.14-.14,63.95Z"/>
  </g>
  <polygon points="244.92 121.2 237.39 119.97 236.15 125.72 244.37 126.27 244.92 121.2"/>
  <path d="m318.31,163.1h-9.31l-3.15,1.92v-16.3c6.66-4.47,9.99-9.45,9.99-14.93,0-4.56-2.33-8.76-6.98-12.6v-10h24.24l-26.43-13.28v21.64c-9.13-6.57-23.92-12-44.37-16.3v-8.49h24.24l-26.57-13.28v21.36c-20.18-4.11-42.36-6.21-66.55-6.3v-10.27h24.24l-26.56-13.28v23.55c-24.74,0-47.66,1.87-68.74,5.61v-10.13h24.23l-26.43-13.15v23.69c-9.95,1.83-18.53,4.02-25.74,6.57l-22.46-11.23v24.51c-3.01,3.47-4.52,7.26-4.52,11.37,0,5.93,3.47,11.18,10.41,15.75v14.52l-1.51-.96h-9.45c3.56,4.11,7.21,7.67,10.96,10.68v13.69l-1.51-.96h-9.45c3.56,4.11,7.21,7.67,10.96,10.68v14.24l-1.51-.96h-9.45c14.79,17.25,36.15,26.66,64.09,28.21v-10.95c-6.02-.55-12.1-1.46-18.21-2.74v-12.46c5.66,1.09,11.73,1.83,18.21,2.19v-10.95c-6.76-.64-12.83-1.51-18.21-2.6v-12.05c5.66,1.1,11.73,1.83,18.21,2.19v-10.96c-6.02-.55-12.1-1.46-18.21-2.74v-15.2c25.84,5.84,52.13,8.76,78.88,8.76,29.39,0,55.82-2.92,79.29-8.76v15.61c-5.12,1.01-10.68,1.78-16.71,2.33v10.96c5.84-.36,11.41-1,16.71-1.92v12.05c-5.12,1.01-10.68,1.78-16.71,2.33v10.95c5.84-.36,11.41-1,16.71-1.92v12.6c-5.12,1.01-10.68,1.78-16.71,2.33v10.95c27.94-1.55,49.3-10.95,64.09-28.21h-9.31l-3.15,1.92v-13.97c4.2-3.19,8.35-7.17,12.46-11.91h-9.31l-3.15,1.92v-13.42c4.2-3.19,8.35-7.17,12.46-11.91Zm-48.2-52.31l-22.18,37.25c-9.31-1.64-20.86-2.69-34.65-3.15l12.46-40.26c17.44,1.46,32.23,3.52,44.37,6.16Zm-78.19-7.8c6.48,0,15.52.41,27.11,1.23l-9.72,40.53c-12.15-.27-24.01-.23-35.6.14l-6.16-40.94c9.68-.64,17.8-.96,24.37-.96Zm-32.32,1.51l10.13,40.53c-13.05.64-23.41,1.97-31.08,3.97l-23.14-38.62c12.23-2.55,26.93-4.52,44.09-5.89Zm-85.45,15.61v-9.18h15.47c-6.57,2.74-11.73,5.8-15.47,9.18Zm30.26,102.84c-6.58-1.92-12.83-4.34-18.76-7.26v-13.15c5.57,3.38,11.82,6.02,18.76,7.94v12.46Zm0-23.83c-6.12-1.73-12.37-4.2-18.76-7.4v-12.6c5.57,3.38,11.82,6.02,18.76,7.94v12.05Zm0-23.55c-6.58-1.92-12.83-4.33-18.76-7.26v-14.52c5.11,2.38,11.37,4.57,18.76,6.57v15.2Zm193.62,40.94c-6.12,2.92-12.37,5.25-18.76,6.98v-12.6c7.03-1.92,13.28-4.38,18.76-7.39v13.01Zm0-23.96c-6.12,2.92-12.37,5.25-18.76,6.98v-12.05c7.03-1.92,13.28-4.38,18.76-7.4v12.46Zm0-23.41c-6.12,2.92-12.37,5.25-18.76,6.98v-15.88c7.3-2.1,13.55-4.43,18.76-6.98v15.88Zm-43.13-14.38c-21.55,3.56-42.54,5.34-62.99,5.34s-42.13-1.73-63.13-5.2c-32.5-5.29-48.75-13.46-48.75-24.51,0-7.85,9.77-14.01,29.3-18.49l26.43,37.93-4.24,1.64c17.25,3.1,37.38,4.66,60.39,4.66,28.39,0,51.03-1.69,67.92-5.07l-8.9-2.46,25.33-36.29c18.26,4.38,27.39,10.41,27.39,18.08,0,10.77-16.25,18.9-48.75,24.37Z"/>
  <polygon points="274.9 137.22 281.75 139.41 280.11 132.02 274.9 137.22"/>
  <polygon points="105.79 139.41 112.77 138.32 110.04 133.11 105.79 139.41"/>
  <rect x="187.54" y="118.19" width="10" height="5.89"/>
  <polygon points="150.57 125.72 149.34 119.97 141.8 121.2 142.35 126.27 150.57 125.72"/>
</svg>